<svg width="101" height="45" viewBox="0 0 101 45" fill="none" xmlns="http://www.w3.org/2000/svg">
<path d="M6.67078 40.4174C6.67078 41.3806 6.13453 41.9091 5.07053 41.9091H3.52986C3.45325 41.9091 3.41069 41.8665 3.41069 41.7898V39.062C3.41069 38.9853 3.45325 38.9426 3.52986 38.9426H5.07053C6.12602 38.9512 6.67078 39.5138 6.67078 40.4174ZM6.45798 35.2601C6.45798 36.1722 5.92173 36.6155 4.89178 36.6155H3.52135C3.44474 36.6155 3.40218 36.5814 3.40218 36.4961V34.024C3.40218 33.9473 3.44474 33.9047 3.52135 33.9047H4.89178C5.93876 33.9047 6.45798 34.3309 6.45798 35.2601ZM8.23699 37.6895V37.6554C9.22439 37.1355 9.83725 36.1893 9.83725 34.8339C9.83725 32.7454 8.48384 31.3303 5.55572 31.3303H0.210183C0.0910151 31.3303 0.0144043 31.4071 0.0144043 31.5264V44.2875C0.0144043 44.4068 0.0910151 44.4835 0.210183 44.4835H5.49613C8.25402 44.4835 10.0756 43.2645 10.0756 40.6987C10.0671 39.1643 9.19885 38.0646 8.23699 37.6895ZM20.6134 35.6096C20.6134 36.462 20.0346 36.9991 19.0728 36.9991H17.2597C17.1831 36.9991 17.1405 36.9565 17.1405 36.8797V34.3309C17.1405 34.2542 17.1746 34.2116 17.2597 34.2116H19.0728C20.0346 34.2116 20.6134 34.7571 20.6134 35.6096ZM24.1289 44.475C24.2651 44.475 24.3247 44.3556 24.2651 44.2448L21.8562 39.241C23.2436 38.542 24.0182 37.2122 24.0182 35.567C24.0182 33.0949 22.2988 31.3303 19.2856 31.3303H13.94C13.8209 31.3303 13.7443 31.4071 13.7443 31.5264V44.2875C13.7443 44.4068 13.8209 44.4835 13.94 44.4835H16.9533C17.0724 44.4835 17.1491 44.4068 17.1491 44.2875V39.9144C17.1491 39.8377 17.1831 39.7951 17.2682 39.7951H18.5195L20.5113 44.2789C20.5709 44.4153 20.6305 44.475 20.8007 44.475H24.1289ZM36.7437 44.2875V41.7898C36.7437 41.6705 36.6671 41.5937 36.5479 41.5937H31.279C31.2024 41.5937 31.1598 41.5596 31.1598 41.4744V39.3689C31.1598 39.2921 31.1938 39.2495 31.279 39.2495H35.6031C35.7222 39.2495 35.7988 39.1728 35.7988 39.0535V36.6155C35.7988 36.4961 35.7222 36.4194 35.6031 36.4194H31.279C31.2024 36.4194 31.1598 36.3853 31.1598 36.3001V34.3054C31.1598 34.2286 31.1938 34.186 31.279 34.186H36.5479C36.6671 34.186 36.7437 34.1093 36.7437 33.99V31.4923C36.7437 31.373 36.6671 31.2962 36.5479 31.2962H27.9593C27.8401 31.2962 27.7635 31.373 27.7635 31.4923V44.2534C27.7635 44.3727 27.8401 44.4494 27.9593 44.4494H36.5479C36.6671 44.475 36.7437 44.3983 36.7437 44.2875ZM46.8048 38.3885L43.7746 31.5264C43.715 31.373 43.5788 31.3303 43.4511 31.3303H40.5911C40.4719 31.3303 40.3953 31.4071 40.3953 31.5264V44.2875C40.3953 44.4068 40.4719 44.4835 40.5911 44.4835H43.2724C43.3915 44.4835 43.4681 44.4068 43.4681 44.2875V37.5191H43.5618L45.6642 42.4291C45.7834 42.6252 45.9196 42.6763 46.0302 42.6763H47.5369C47.656 42.6763 47.8093 42.6167 47.9029 42.4291L50.0053 37.5191H50.099V44.2875C50.099 44.4068 50.1756 44.4835 50.2948 44.4835H52.976C53.0952 44.4835 53.1718 44.4068 53.1718 44.2875V31.5264C53.1718 31.4071 53.0952 31.3303 52.976 31.3303H50.1586C50.0224 31.3303 49.8862 31.3644 49.8351 31.5264L46.8814 38.3885H46.8048ZM61.1305 19.4814V0.650935C61.1305 0.480446 61.0199 0.369629 60.8496 0.369629H56.4064C56.2361 0.369629 56.1255 0.480446 56.1255 0.650935V7.52162C56.1255 7.63244 56.0659 7.69211 55.9552 7.69211H50.6863C50.5757 7.69211 50.5161 7.63244 50.5161 7.52162V0.650935C50.5161 0.480446 50.4054 0.369629 50.2352 0.369629H45.7919C45.6217 0.369629 45.511 0.480446 45.511 0.650935V19.4729C45.511 19.6433 45.6217 19.7542 45.7919 19.7542H50.2352C50.4054 19.7542 50.5161 19.6433 50.5161 19.4729V12.3123C50.5161 12.2015 50.5757 12.1419 50.6863 12.1419H55.9552C56.0659 12.1419 56.1255 12.2015 56.1255 12.3123V19.4729C56.1255 19.6433 56.2361 19.7542 56.4064 19.7542H60.8496C61.0199 19.7627 61.1305 19.6519 61.1305 19.4814ZM66.1526 44.2875V41.7898C66.1526 41.6705 66.076 41.5937 65.9568 41.5937H60.6879C60.6113 41.5937 60.5687 41.5596 60.5687 41.4744V39.3689C60.5687 39.2921 60.6028 39.2495 60.6879 39.2495H65.012C65.1312 39.2495 65.2078 39.1728 65.2078 39.0535V36.6155C65.2078 36.4961 65.1312 36.4194 65.012 36.4194H60.6879C60.6113 36.4194 60.5687 36.3853 60.5687 36.3001V34.3054C60.5687 34.2286 60.6028 34.186 60.6879 34.186H65.9568C66.076 34.186 66.1526 34.1093 66.1526 33.99V31.4923C66.1526 31.373 66.076 31.2962 65.9568 31.2962H57.3682C57.2491 31.2962 57.1724 31.373 57.1724 31.4923V44.2534C57.1724 44.3727 57.2491 44.4494 57.3682 44.4494H65.9568C66.076 44.475 66.1526 44.3983 66.1526 44.2875ZM79.7888 4.33348V0.650935C79.7888 0.480446 79.6782 0.369629 79.5079 0.369629H66.8336C66.6633 0.369629 66.5527 0.480446 66.5527 0.650935V19.4729C66.5527 19.6433 66.6633 19.7542 66.8336 19.7542H71.2768C71.4471 19.7542 71.5577 19.6433 71.5577 19.4729V12.4828C71.5577 12.372 71.6173 12.3123 71.728 12.3123H78.1035C78.2737 12.3123 78.3843 12.2015 78.3843 12.031V8.44226C78.3843 8.27177 78.2737 8.16095 78.1035 8.16095H71.728C71.6173 8.16095 71.5577 8.10128 71.5577 7.99046V4.7938C71.5577 4.68299 71.6173 4.62332 71.728 4.62332H79.4994C79.6782 4.61479 79.7888 4.50397 79.7888 4.33348ZM80.291 44.2875V31.5264C80.291 31.4071 80.2144 31.3303 80.0953 31.3303H77.397C77.2778 31.3303 77.2012 31.4071 77.2012 31.5264V38.9682H77.1246L73.1665 31.5264C73.1069 31.39 72.9707 31.3303 72.8345 31.3303H70C69.8809 31.3303 69.8043 31.4071 69.8043 31.5264V44.2875C69.8043 44.4068 69.8809 44.4835 70 44.4835H72.6983C72.8175 44.4835 72.8941 44.4068 72.8941 44.2875V36.8627H73.0133L76.9288 44.2875C76.9884 44.4238 77.1246 44.4835 77.2608 44.4835H80.0953C80.2144 44.475 80.291 44.3983 80.291 44.2875ZM99.9793 19.4473L93.8592 8.23767L99.6388 0.736178C99.7495 0.565689 99.6984 0.369629 99.4686 0.369629H94.455C94.2252 0.369629 94.1145 0.454872 93.9698 0.625361L88.42 8.23767V0.650935C88.42 0.480446 88.3093 0.369629 88.1391 0.369629H83.6958C83.5256 0.369629 83.4149 0.480446 83.4149 0.650935V19.4729C83.4149 19.6433 83.5256 19.7542 83.6958 19.7542H88.1391C88.3093 19.7542 88.42 19.6433 88.42 19.4729V14.9634L90.4969 12.193L94.2592 19.4984C94.3443 19.6689 94.455 19.7542 94.7189 19.7542H99.8175C100.005 19.7627 100.064 19.5922 99.9793 19.4473Z" fill="white"/>
</svg>
